<?xml version="1.0" encoding="UTF-8"?>
<!DOCTYPE svg PUBLIC "-//W3C//DTD SVG 1.1//EN" "http://www.w3.org/Graphics/SVG/1.1/DTD/svg11.dtd">
<!-- Creator: CorelDRAW X8 -->
<svg xmlns="http://www.w3.org/2000/svg" xml:space="preserve" width="27.093mm" height="16.9332mm" version="1.1" style="shape-rendering:geometricPrecision; text-rendering:geometricPrecision; image-rendering:optimizeQuality; fill-rule:evenodd; clip-rule:evenodd"
viewBox="0 0 2709 1693"
 xmlns:xlink="http://www.w3.org/1999/xlink">
 <defs>
  <style type="text/css">
   <![CDATA[
    .fil0 {fill:#DD3438;fill-rule:nonzero}
    .fil1 {fill:#FEFEFE;fill-rule:nonzero}
   ]]>
  </style>
 </defs>
 <g id="Camada_x0020_1">
  <metadata id="CorelCorpID_0Corel-Layer"/>
  <g id="_807540384">
   <polygon class="fil0" points="387,1292 387,993 88,993 88,665 387,665 387,366 715,366 715,665 1014,665 1014,993 715,993 715,1292 "/>
   <path class="fil0" d="M776 1366l0 -322 98 0 57 220 57 -220 98 0 0 322 -60 0 -1 -253 -63 253 -62 0 -64 -253 0 253 -60 0zm420 -161l-55 -10c6,-23 17,-40 32,-51 15,-11 38,-16 68,-16 28,0 48,3 62,10 13,6 23,14 28,24 6,10 9,29 9,56l-1 71c0,21 1,36 3,46 1,9 5,20 11,31l-62 0c-1,-4 -3,-10 -5,-18 -1,-4 -2,-6 -3,-7 -10,10 -21,18 -33,23 -12,5 -25,8 -39,8 -23,0 -42,-7 -56,-20 -14,-13 -21,-29 -21,-49 0,-13 3,-25 10,-35 6,-11 15,-19 26,-24 11,-5 28,-10 49,-14 29,-6 49,-11 60,-15l0 -7c0,-12 -3,-20 -9,-25 -6,-5 -17,-8 -33,-8 -11,0 -20,2 -26,7 -6,4 -11,12 -15,23zm83 49c-8,3 -20,6 -38,10 -17,4 -28,7 -33,11 -8,5 -12,13 -12,21 0,9 3,16 9,23 7,6 15,9 25,9 11,0 22,-4 32,-11 7,-5 12,-12 14,-20 2,-5 3,-15 3,-30l0 -13zm324 -52l-60 11c-2,-12 -7,-21 -14,-28 -8,-6 -17,-9 -29,-9 -15,0 -27,6 -36,16 -9,11 -14,29 -14,54 0,27 5,47 14,58 9,12 22,17 37,17 12,0 21,-3 29,-10 7,-6 13,-18 16,-34l60 10c-6,28 -18,49 -36,63 -18,15 -42,22 -72,22 -34,0 -61,-11 -81,-33 -20,-21 -30,-51 -30,-89 0,-39 10,-68 30,-90 20,-21 48,-32 83,-32 28,0 50,6 67,18 17,12 29,31 36,56zm45 164l0 -322 61 0 0 171 72 -82 76 0 -79 85 85 148 -66 0 -59 -105 -29 30 0 75 -61 0z"/>
   <path class="fil0" d="M773 310l113 0c26,0 46,2 59,6 18,5 34,15 46,28 13,14 23,31 30,50 7,20 10,44 10,73 0,26 -3,48 -10,66 -7,23 -18,41 -32,55 -11,10 -26,18 -44,24 -14,5 -32,7 -55,7l-117 0 0 -309zm62 52l0 205 47 0c17,0 29,-1 37,-3 10,-3 19,-7 25,-13 7,-6 12,-16 16,-30 5,-14 7,-33 7,-56 0,-24 -2,-43 -7,-55 -4,-13 -10,-23 -17,-30 -8,-7 -17,-12 -29,-15 -9,-2 -26,-3 -51,-3l-28 0zm305 257l-59 0 0 -224 55 0 0 32c9,-15 18,-25 25,-30 8,-4 16,-7 26,-7 13,0 26,4 39,11l-18 52c-10,-6 -20,-10 -28,-10 -9,0 -16,3 -21,7 -6,5 -11,13 -14,25 -3,12 -5,37 -5,75l0 69zm259 0l0 -34c-8,12 -19,22 -32,29 -13,7 -27,10 -42,10 -15,0 -28,-3 -40,-10 -12,-6 -21,-15 -26,-27 -6,-12 -8,-29 -8,-50l0 -142 59 0 0 103c0,32 1,51 3,58 2,7 6,13 12,17 6,4 13,6 22,6 10,0 19,-3 27,-8 8,-6 14,-13 17,-21 3,-8 4,-28 4,-60l0 -95 59 0 0 224 -55 0zm110 14l68 8c1,8 4,14 8,17 5,4 14,6 26,6 16,0 27,-2 35,-7 5,-3 9,-8 12,-15 2,-5 3,-14 3,-27l0 -33c-18,25 -40,37 -67,37 -30,0 -54,-13 -72,-38 -14,-20 -21,-45 -21,-75 0,-38 10,-66 28,-86 18,-20 40,-30 67,-30 28,0 50,12 68,37l0 -32 56 0 0 201c0,26 -3,46 -7,59 -4,13 -10,23 -18,31 -8,7 -19,13 -32,17 -13,4 -29,6 -49,6 -38,0 -65,-6 -81,-19 -16,-13 -24,-30 -24,-50 0,-2 0,-4 0,-7zm53 -131c0,24 5,41 14,52 9,11 21,17 34,17 14,0 27,-6 36,-17 10,-11 15,-28 15,-50 0,-23 -4,-40 -14,-52 -9,-11 -21,-16 -36,-16 -14,0 -26,5 -35,16 -9,11 -14,28 -14,50z"/>
   <path class="fil0" d="M1146 959l0 -199 -71 0 0 -41 190 0 0 41 -71 0 0 199 -48 0zm176 0l-46 0 0 -174 42 0 0 25c8,-12 14,-19 20,-23 6,-3 12,-5 20,-5 10,0 21,3 30,8l-14 40c-8,-5 -15,-7 -22,-7 -6,0 -12,2 -16,5 -4,4 -8,10 -11,19 -2,10 -3,29 -3,59l0 53zm120 -120l-41 -7c4,-17 12,-30 24,-38 11,-8 28,-12 51,-12 20,0 36,2 46,7 10,5 17,11 21,18 4,8 6,22 6,42l-1 53c0,15 1,27 3,34 1,7 4,15 8,23l-46 0c-1,-3 -2,-7 -4,-13 -1,-3 -1,-5 -2,-5 -8,7 -16,13 -25,17 -9,4 -18,6 -28,6 -18,0 -32,-5 -43,-15 -10,-10 -15,-22 -15,-37 0,-9 2,-18 7,-26 5,-8 11,-14 20,-18 8,-4 20,-7 36,-10 22,-4 37,-8 45,-12l0 -4c0,-9 -2,-16 -7,-19 -4,-4 -12,-6 -24,-6 -9,0 -15,2 -20,5 -4,3 -8,9 -11,17zm62 37c-6,2 -15,5 -28,7 -13,3 -21,6 -25,8 -6,5 -9,10 -9,16 0,7 2,12 7,17 5,5 11,7 18,7 9,0 17,-3 24,-8 6,-4 9,-9 11,-15 1,-4 2,-12 2,-23l0 -9zm249 83l-46 0 0 -88c0,-19 -1,-31 -3,-37 -2,-5 -6,-9 -10,-13 -4,-3 -10,-4 -16,-4 -8,0 -15,2 -22,6 -6,5 -10,11 -13,18 -2,7 -3,20 -3,40l0 78 -46 0 0 -174 42 0 0 26c15,-20 35,-29 58,-29 10,0 19,2 28,5 8,4 15,9 19,14 4,6 7,12 9,19 2,8 3,18 3,31l0 108zm197 -122l-45 8c-1,-9 -5,-16 -10,-20 -6,-5 -13,-7 -21,-7 -12,0 -21,4 -28,12 -6,8 -10,21 -10,40 0,20 4,35 11,43 7,9 16,13 27,13 9,0 16,-2 22,-7 5,-5 9,-14 12,-26l45 8c-5,20 -14,36 -27,47 -13,10 -31,16 -54,16 -25,0 -45,-8 -60,-24 -15,-16 -23,-39 -23,-67 0,-29 8,-51 23,-67 15,-16 35,-24 61,-24 21,0 38,4 51,13 12,10 21,23 26,42zm34 122l0 -240 46 0 0 128 53 -62 57 0 -59 64 63 110 -49 0 -44 -78 -21 23 0 55 -46 0zm188 -197l0 -43 46 0 0 43 -46 0zm0 197l0 -174 46 0 0 174 -46 0zm251 0l-46 0 0 -88c0,-19 -1,-31 -3,-37 -2,-5 -5,-9 -10,-13 -4,-3 -9,-4 -16,-4 -8,0 -15,2 -21,6 -7,5 -11,11 -13,18 -3,7 -4,20 -4,40l0 78 -46 0 0 -174 43 0 0 26c15,-20 34,-29 57,-29 10,0 20,2 28,5 9,4 15,9 19,14 5,6 8,12 9,19 2,8 3,18 3,31l0 108zm42 11l53 7c1,6 3,10 6,13 4,3 11,4 20,4 12,0 21,-1 27,-5 4,-2 7,-6 9,-12 2,-3 3,-10 3,-21l0 -25c-14,19 -31,28 -52,28 -24,0 -42,-10 -56,-29 -11,-16 -16,-35 -16,-58 0,-30 7,-52 21,-67 14,-16 32,-23 52,-23 22,0 40,9 54,28l0 -25 43 0 0 156c0,21 -2,36 -6,46 -3,10 -8,18 -14,24 -6,6 -14,10 -24,14 -10,3 -23,5 -39,5 -29,0 -50,-5 -63,-16 -12,-10 -18,-22 -18,-38 0,-2 0,-3 0,-6zm41 -101c0,18 4,32 11,40 7,9 16,13 26,13 11,0 21,-4 29,-13 7,-9 11,-22 11,-39 0,-18 -3,-31 -11,-40 -7,-9 -17,-13 -28,-13 -11,0 -20,4 -27,13 -7,8 -11,21 -11,39z"/>
   <g>
    <path class="fil1" d="M551 1152l-134 -273c-10,-21 -15,-43 -15,-65 0,-55 31,-108 84,-134 21,-10 43,-15 65,-15 0,0 0,0 0,0 55,0 108,30 134,83l-5 3 5 -3c10,21 15,44 15,65 0,23 -6,46 -15,66l0 0 -134 273 0 0zm0 -476c-20,0 -41,5 -60,14 -49,24 -77,73 -77,124 0,20 4,41 14,60l123 252 124 -252 0 0c8,-19 13,-39 13,-61 0,-20 -4,-40 -13,-60l0 0c-24,-48 -73,-77 -124,-77l0 0zm0 206c-40,0 -72,-32 -72,-72 0,-40 32,-72 72,-72 40,0 72,32 72,72 0,40 -32,72 -72,72l0 -11c17,0 32,-7 43,-18 11,-11 18,-26 18,-43 0,-17 -7,-32 -18,-43 -11,-11 -26,-18 -43,-18 -17,0 -32,7 -43,18 -11,11 -18,26 -18,43 0,17 7,32 18,43 11,11 26,18 43,18l0 11z"/>
    <polygon class="fil1" points="551,1069 460,876 460,876 470,872 551,1044 564,1020 574,1026 "/>
   </g>
  </g>
 </g>
</svg>
