<?xml version="1.0" encoding="UTF-8"?>
<!DOCTYPE svg PUBLIC "-//W3C//DTD SVG 1.1//EN" "http://www.w3.org/Graphics/SVG/1.1/DTD/svg11.dtd">
<!-- Creator: CorelDRAW X8 -->
<svg xmlns="http://www.w3.org/2000/svg" xml:space="preserve" width="25.3998mm" height="16.9332mm" version="1.1" style="shape-rendering:geometricPrecision; text-rendering:geometricPrecision; image-rendering:optimizeQuality; fill-rule:evenodd; clip-rule:evenodd"
viewBox="0 0 2540 1693"
 xmlns:xlink="http://www.w3.org/1999/xlink">
 <defs>
  <style type="text/css">
   <![CDATA[
    .fil0 {fill:#DD3438;fill-rule:nonzero}
    .fil1 {fill:#FEFEFE;fill-rule:nonzero}
   ]]>
  </style>
 </defs>
 <g id="Camada_x0020_1">
  <metadata id="CorelCorpID_0Corel-Layer"/>
  <g id="_807519584">
   <polygon class="fil0" points="464,1217 464,968 216,968 216,694 464,694 464,445 738,445 738,694 987,694 987,968 738,968 738,1217 "/>
   <path class="fil0" d="M788 1278l0 -268 82 0 48 183 47 -183 82 0 0 268 -51 0 0 -211 -53 211 -52 0 -52 -211 0 211 -51 0zm351 -134l-47 -8c6,-19 15,-33 27,-42 13,-9 32,-14 57,-14 23,0 40,3 52,8 11,6 19,12 23,21 5,8 7,23 7,46l-1 60c0,17 1,29 3,37 1,8 4,17 9,26l-51 0c-1,-3 -3,-8 -5,-15 -1,-3 -1,-5 -2,-6 -8,9 -18,15 -28,20 -10,4 -20,6 -32,6 -20,0 -35,-5 -47,-16 -11,-11 -17,-25 -17,-41 0,-11 3,-21 8,-29 5,-9 12,-16 22,-20 9,-5 23,-9 41,-12 24,-5 40,-9 50,-13l0 -5c0,-10 -3,-17 -8,-21 -5,-5 -14,-7 -27,-7 -10,0 -17,2 -22,6 -5,3 -9,10 -12,19zm69 42c-7,2 -17,4 -32,7 -14,3 -23,6 -28,9 -6,5 -10,11 -10,18 0,8 3,14 8,19 6,5 12,8 21,8 9,0 18,-3 26,-9 6,-5 11,-10 13,-17 1,-5 2,-13 2,-25l0 -10zm270 -44l-51 9c-1,-10 -5,-18 -11,-23 -6,-5 -14,-8 -24,-8 -13,0 -23,5 -30,14 -8,9 -12,23 -12,44 0,23 4,39 12,49 7,10 18,14 31,14 10,0 17,-3 24,-8 6,-6 10,-15 13,-29l50 9c-5,23 -15,41 -30,52 -15,12 -35,18 -60,18 -28,0 -50,-9 -67,-27 -17,-18 -26,-42 -26,-74 0,-32 9,-57 26,-75 17,-18 40,-27 68,-27 24,0 43,5 57,15 14,10 24,26 30,47zm37 136l0 -268 51 0 0 143 60 -69 63 0 -66 71 71 123 -55 0 -49 -87 -24 25 0 62 -51 0z"/>
   <path class="fil0" d="M786 399l94 0c22,0 38,1 49,4 15,5 28,13 39,24 11,11 19,25 25,42 5,16 8,37 8,61 0,21 -3,39 -8,54 -6,19 -16,34 -27,46 -9,9 -22,15 -37,20 -11,4 -27,6 -46,6l-97 0 0 -257zm52 43l0 170 38 0c15,0 25,0 32,-2 8,-2 15,-6 21,-11 5,-5 10,-13 13,-25 4,-11 5,-27 5,-47 0,-20 -1,-35 -5,-46 -3,-10 -8,-18 -15,-24 -6,-6 -14,-10 -24,-13 -7,-1 -21,-2 -42,-2l-23 0zm254 214l-49 0 0 -187 45 0 0 27c8,-13 15,-21 21,-25 7,-4 14,-6 22,-6 11,0 22,3 32,10l-15 43c-8,-6 -16,-8 -23,-8 -7,0 -13,1 -18,5 -4,4 -8,11 -11,21 -3,10 -4,31 -4,62l0 58zm216 0l0 -28c-7,10 -16,18 -27,24 -11,6 -23,8 -35,8 -13,0 -24,-2 -34,-8 -10,-5 -17,-13 -21,-23 -5,-10 -7,-24 -7,-41l0 -119 49 0 0 86c0,27 1,43 3,48 2,6 5,11 10,15 5,3 11,5 18,5 9,0 16,-3 23,-7 7,-5 11,-11 14,-17 2,-7 3,-24 3,-51l0 -79 50 0 0 187 -46 0zm91 12l57 7c1,6 3,11 6,13 5,4 12,6 22,6 13,0 23,-2 29,-6 5,-3 8,-7 10,-13 2,-4 3,-11 3,-22l0 -28c-15,21 -34,31 -56,31 -25,0 -45,-11 -60,-32 -11,-17 -17,-37 -17,-62 0,-32 8,-55 23,-72 15,-16 33,-25 56,-25 23,0 42,10 57,31l0 -27 46 0 0 168c0,22 -2,38 -6,49 -3,11 -8,19 -15,25 -6,7 -15,12 -26,15 -11,4 -25,5 -42,5 -31,0 -54,-5 -67,-16 -13,-11 -20,-25 -20,-41 0,-2 0,-4 0,-6zm45 -109c0,20 3,34 11,43 8,9 17,14 28,14 12,0 23,-5 31,-14 8,-10 12,-23 12,-42 0,-19 -4,-34 -12,-43 -8,-9 -18,-14 -30,-14 -12,0 -21,5 -29,14 -8,9 -11,23 -11,42z"/>
   <path class="fil0" d="M1097 940l0 -167 -60 0 0 -33 159 0 0 33 -59 0 0 167 -40 0zm146 0l-38 0 0 -145 35 0 0 20c6,-9 12,-16 17,-19 5,-3 10,-4 16,-4 9,0 18,2 26,7l-12 33c-7,-4 -13,-6 -18,-6 -6,0 -10,1 -14,4 -4,3 -7,9 -9,16 -2,8 -3,24 -3,49l0 45zm101 -101l-35 -6c4,-14 11,-24 20,-31 10,-7 24,-10 43,-10 17,0 30,2 38,6 8,4 14,9 18,15 3,6 5,18 5,34l-1 45c0,13 1,22 2,28 1,6 3,13 7,20l-38 0c-1,-3 -2,-7 -4,-12 0,-2 -1,-3 -1,-4 -7,6 -14,11 -21,14 -8,4 -16,5 -24,5 -15,0 -26,-4 -35,-12 -9,-8 -13,-18 -13,-31 0,-8 2,-15 6,-21 4,-7 9,-12 16,-15 7,-4 18,-7 31,-9 18,-3 30,-7 37,-10l0 -3c0,-8 -2,-13 -5,-16 -4,-4 -11,-5 -21,-5 -7,0 -12,1 -16,4 -4,3 -7,8 -9,14zm51 31c-5,2 -13,4 -23,6 -11,2 -18,5 -21,7 -5,3 -8,8 -8,13 0,6 2,10 6,14 4,4 9,6 16,6 6,0 13,-2 19,-7 5,-3 8,-7 10,-12 0,-4 1,-10 1,-19l0 -8zm207 70l-38 0 0 -74c0,-16 -1,-26 -3,-31 -1,-4 -4,-8 -8,-10 -3,-3 -8,-4 -13,-4 -7,0 -13,2 -18,5 -5,4 -9,9 -11,15 -2,6 -3,17 -3,33l0 66 -38 0 0 -145 35 0 0 21c13,-16 29,-24 48,-24 9,0 17,1 24,4 7,3 12,7 16,12 3,5 6,10 7,16 1,6 2,14 2,26l0 90zm165 -102l-38 6c-1,-7 -4,-13 -8,-17 -5,-3 -11,-5 -18,-5 -9,0 -17,3 -23,10 -5,6 -8,17 -8,33 0,17 3,29 9,36 5,7 13,11 23,11 7,0 13,-2 18,-6 4,-4 7,-12 9,-22l38 7c-4,17 -11,30 -22,39 -11,9 -26,13 -45,13 -21,0 -38,-7 -51,-20 -12,-13 -18,-32 -18,-55 0,-24 6,-43 19,-56 12,-14 29,-20 51,-20 17,0 31,3 42,11 10,8 18,19 22,35zm28 102l0 -200 38 0 0 106 45 -51 47 0 -49 53 53 92 -42 0 -36 -66 -18 19 0 47 -38 0zm156 -165l0 -35 39 0 0 35 -39 0zm0 165l0 -145 39 0 0 145 -39 0zm210 0l-38 0 0 -74c0,-16 -1,-26 -3,-31 -2,-4 -4,-8 -8,-10 -4,-3 -8,-4 -13,-4 -7,0 -13,2 -18,5 -6,4 -9,9 -11,15 -2,6 -3,17 -3,33l0 66 -39 0 0 -145 36 0 0 21c13,-16 29,-24 48,-24 8,0 16,1 23,4 7,3 13,7 16,12 4,5 6,10 8,16 1,6 2,14 2,26l0 90zm35 9l44 5c1,5 2,9 5,11 3,2 9,4 17,4 10,0 18,-2 23,-5 3,-2 5,-5 7,-9 1,-3 2,-9 2,-18l0 -21c-11,16 -26,24 -43,24 -20,0 -35,-9 -47,-25 -9,-13 -13,-29 -13,-49 0,-24 6,-42 17,-55 12,-13 27,-19 44,-19 18,0 33,7 44,23l0 -20 36 0 0 130c0,17 -1,29 -4,38 -3,8 -7,15 -12,20 -5,5 -12,8 -20,11 -9,3 -20,4 -33,4 -24,0 -42,-4 -52,-12 -10,-9 -15,-20 -15,-33 0,-1 0,-2 0,-4zm34 -85c0,16 3,27 9,34 6,7 13,11 22,11 9,0 17,-4 24,-11 6,-8 9,-19 9,-33 0,-15 -3,-26 -9,-33 -6,-7 -14,-11 -23,-11 -9,0 -17,4 -23,11 -6,7 -9,18 -9,32z"/>
   <g>
    <path class="fil1" d="M601 1100l-111 -227c-9,-18 -13,-36 -13,-55 0,-46 25,-90 69,-111 18,-9 37,-13 55,-13 0,0 0,0 0,0 46,0 90,26 112,70l-5 2 5 -2c8,17 12,36 12,54 0,19 -5,38 -12,55l0 0 -112 227 0 0zm0 -396c-17,0 -34,3 -50,11 -41,20 -64,61 -64,103 0,17 3,34 11,51l103 210 103 -210 0 0c7,-16 11,-33 11,-51 0,-17 -3,-34 -11,-50l0 0c-20,-41 -61,-64 -103,-64l0 0zm0 171c-33,0 -60,-27 -60,-60 0,-33 27,-60 60,-60 33,0 60,27 60,60 0,33 -27,60 -60,60l0 -9c14,0 27,-6 36,-15 9,-9 14,-22 14,-36 0,-14 -5,-26 -14,-35 -9,-10 -22,-15 -36,-15 -14,0 -27,5 -36,15 -9,9 -15,21 -15,35 0,14 6,27 15,36 9,9 22,15 36,15l0 9z"/>
    <polygon class="fil1" points="601,1031 525,870 525,870 534,866 601,1010 612,990 620,995 "/>
   </g>
  </g>
 </g>
</svg>
