<?xml version="1.0" encoding="UTF-8"?>
<!DOCTYPE svg PUBLIC "-//W3C//DTD SVG 1.1//EN" "http://www.w3.org/Graphics/SVG/1.1/DTD/svg11.dtd">
<!-- Creator: CorelDRAW X8 -->
<svg xmlns="http://www.w3.org/2000/svg" xml:space="preserve" width="30.6484mm" height="16.9332mm" version="1.1" style="shape-rendering:geometricPrecision; text-rendering:geometricPrecision; image-rendering:optimizeQuality; fill-rule:evenodd; clip-rule:evenodd"
viewBox="0 0 3065 1693"
 xmlns:xlink="http://www.w3.org/1999/xlink">
 <defs>
  <style type="text/css">
   <![CDATA[
    .fil0 {fill:#DD3438;fill-rule:nonzero}
    .fil1 {fill:#FEFEFE;fill-rule:nonzero}
   ]]>
  </style>
 </defs>
 <g id="Camada_x0020_1">
  <metadata id="CorelCorpID_0Corel-Layer"/>
  <g id="_807520544">
   <polygon class="fil0" points="403,1367 403,1018 55,1018 55,636 403,636 403,287 786,287 786,636 1134,636 1134,1018 786,1018 786,1367 "/>
   <path class="fil0" d="M857 1453l0 -375 113 0 68 256 66 -256 114 0 0 375 -70 0 0 -295 -74 295 -73 0 -74 -295 0 295 -70 0zm490 -188l-65 -11c7,-27 20,-46 38,-59 18,-13 44,-19 80,-19 32,0 56,3 71,11 16,8 27,17 34,29 6,12 9,33 9,64l-1 84c0,24 1,42 3,53 3,11 7,23 13,36l-71 0c-2,-4 -4,-11 -7,-21 -1,-4 -2,-7 -2,-8 -13,12 -26,21 -40,27 -14,6 -28,9 -44,9 -28,0 -50,-7 -66,-23 -16,-15 -24,-34 -24,-57 0,-15 3,-29 11,-41 7,-12 17,-21 31,-28 13,-6 32,-12 57,-17 33,-6 56,-12 69,-17l0 -7c0,-14 -3,-24 -10,-30 -7,-6 -20,-9 -39,-9 -12,0 -22,2 -30,7 -7,5 -13,14 -17,27zm96 58c-9,3 -23,7 -43,11 -20,5 -33,9 -39,13 -10,7 -15,15 -15,25 0,10 4,19 12,26 7,8 17,11 28,11 13,0 26,-4 37,-12 9,-7 15,-15 18,-24 1,-6 2,-18 2,-35l0 -15zm379 -61l-71 13c-2,-14 -8,-25 -16,-32 -9,-7 -20,-11 -33,-11 -18,0 -32,6 -43,19 -11,12 -16,33 -16,62 0,32 5,55 16,68 11,14 26,20 44,20 13,0 25,-3 33,-11 9,-8 15,-21 19,-40l70 12c-7,32 -21,57 -42,73 -21,17 -48,25 -83,25 -40,0 -72,-12 -95,-37 -24,-26 -36,-60 -36,-105 0,-45 12,-80 36,-105 23,-25 55,-37 96,-37 33,0 59,7 79,21 19,14 33,36 42,65zm52 191l0 -375 71 0 0 199 84 -96 89 0 -93 100 100 172 -78 0 -68 -122 -34 35 0 87 -71 0z"/>
   <path class="fil0" d="M853 222l132 0c30,0 53,2 69,6 21,7 39,18 54,34 15,16 27,35 34,58 8,23 12,51 12,85 0,30 -4,55 -11,77 -9,26 -22,47 -38,63 -13,13 -30,22 -51,29 -16,5 -38,8 -65,8l-136 0 0 -360zm73 60l0 239 54 0c20,0 35,-1 44,-4 11,-2 21,-7 29,-15 8,-7 14,-18 19,-34 5,-16 7,-38 7,-66 0,-28 -2,-49 -7,-64 -5,-15 -12,-27 -21,-35 -9,-8 -20,-14 -33,-17 -10,-2 -30,-4 -60,-4l-32 0zm356 300l-69 0 0 -261 63 0 0 37c11,-18 21,-29 30,-35 9,-5 19,-8 30,-8 16,0 31,5 46,13l-22 60c-11,-7 -22,-11 -32,-11 -10,0 -18,3 -25,8 -7,5 -12,15 -16,29 -4,14 -5,43 -5,87l0 81zm302 0l0 -39c-10,14 -22,25 -38,33 -15,8 -31,12 -49,12 -17,0 -33,-4 -47,-11 -14,-8 -24,-19 -30,-33 -7,-14 -10,-33 -10,-58l0 -165 69 0 0 120c0,37 2,59 4,68 3,8 7,14 14,19 7,5 15,8 26,8 12,0 22,-4 32,-10 9,-7 15,-15 19,-24 3,-10 5,-33 5,-71l0 -110 69 0 0 261 -64 0zm128 16l79 10c1,9 4,16 9,19 7,5 17,8 31,8 18,0 32,-3 41,-9 6,-3 10,-9 14,-17 2,-6 3,-16 3,-32l0 -38c-21,29 -47,43 -78,43 -35,0 -63,-15 -84,-45 -16,-23 -24,-52 -24,-87 0,-44 11,-77 32,-100 21,-23 47,-35 78,-35 33,0 59,14 80,43l0 -37 65 0 0 234c0,31 -3,54 -8,69 -5,15 -12,27 -21,36 -10,8 -22,15 -37,20 -15,5 -35,7 -58,7 -44,0 -76,-7 -94,-22 -19,-16 -28,-35 -28,-58 0,-2 0,-5 0,-9zm62 -152c0,28 5,48 16,61 11,12 24,19 40,19 16,0 31,-7 42,-20 12,-13 18,-32 18,-58 0,-27 -6,-47 -17,-60 -11,-13 -25,-20 -42,-20 -17,0 -30,6 -41,19 -11,13 -16,33 -16,59z"/>
   <path class="fil0" d="M1288 979l0 -233 -83 0 0 -47 222 0 0 47 -82 0 0 233 -57 0zm205 0l-53 0 0 -203 49 0 0 29c9,-14 16,-23 23,-27 7,-4 15,-6 24,-6 12,0 24,3 35,10l-17 47c-9,-6 -17,-9 -25,-9 -7,0 -14,2 -19,6 -5,4 -9,12 -12,23 -3,10 -5,33 -5,67l0 63zm141 -140l-49 -9c6,-20 15,-34 29,-44 13,-9 33,-14 59,-14 24,0 42,3 54,8 11,6 20,13 24,22 5,9 8,25 8,48l-1 62c0,18 1,31 2,40 2,8 5,17 10,27l-53 0c-2,-3 -3,-9 -5,-16 -1,-3 -2,-5 -2,-6 -9,9 -19,16 -30,20 -10,5 -21,7 -33,7 -21,0 -37,-6 -49,-17 -12,-11 -18,-25 -18,-43 0,-11 3,-21 8,-30 6,-9 13,-16 23,-21 10,-5 24,-9 43,-13 25,-4 42,-9 52,-13l0 -5c0,-11 -3,-18 -8,-22 -5,-5 -15,-7 -29,-7 -9,0 -17,2 -22,6 -5,3 -10,10 -13,20zm72 43c-7,2 -18,5 -33,8 -15,4 -24,7 -29,10 -7,5 -10,11 -10,19 0,7 2,14 8,19 6,5 13,8 21,8 10,0 19,-3 28,-9 6,-5 11,-11 13,-18 1,-5 2,-13 2,-26l0 -11zm290 97l-54 0 0 -103c0,-22 -1,-36 -3,-43 -2,-6 -6,-11 -11,-15 -6,-3 -12,-5 -19,-5 -9,0 -18,2 -25,8 -8,5 -13,11 -16,20 -2,8 -4,24 -4,46l0 92 -53 0 0 -203 49 0 0 30c18,-23 40,-34 67,-34 12,0 23,2 33,6 10,5 17,10 22,17 5,6 9,14 11,22 2,8 3,20 3,36l0 126zm231 -143l-53 10c-2,-11 -6,-19 -12,-24 -6,-5 -14,-8 -24,-8 -14,0 -25,5 -32,14 -8,9 -12,25 -12,46 0,24 4,41 12,51 8,10 19,15 32,15 10,0 19,-3 25,-8 7,-6 11,-16 14,-30l53 9c-6,24 -16,42 -32,55 -15,12 -36,18 -62,18 -30,0 -53,-9 -71,-28 -18,-19 -27,-45 -27,-78 0,-33 9,-59 27,-78 18,-19 42,-28 72,-28 24,0 44,5 59,16 14,10 24,27 31,48zm39 143l0 -280 53 0 0 149 63 -72 66 0 -69 74 74 129 -58 0 -51 -91 -25 26 0 65 -53 0zm219 -230l0 -50 54 0 0 50 -54 0zm0 230l0 -203 54 0 0 203 -54 0zm293 0l-54 0 0 -103c0,-22 -1,-36 -3,-43 -2,-6 -6,-11 -11,-15 -5,-3 -12,-5 -19,-5 -9,0 -18,2 -25,8 -8,5 -13,11 -16,20 -2,8 -4,24 -4,46l0 92 -53 0 0 -203 49 0 0 30c18,-23 41,-34 68,-34 11,0 22,2 32,6 10,5 17,10 22,17 6,6 9,14 11,22 2,8 3,20 3,36l0 126zm49 13l62 7c1,8 3,13 7,15 5,4 13,6 24,6 14,0 24,-2 31,-6 5,-3 9,-8 11,-14 2,-4 2,-12 2,-24l1 -30c-16,22 -37,33 -61,33 -28,0 -49,-11 -65,-34 -13,-19 -19,-41 -19,-68 0,-34 8,-60 25,-78 16,-18 36,-27 61,-27 25,0 46,11 62,33l0 -29 50 0 0 182c0,24 -2,42 -6,54 -4,12 -9,21 -17,28 -7,6 -16,12 -28,15 -12,4 -27,6 -45,6 -35,0 -59,-6 -73,-18 -15,-11 -22,-26 -22,-45 0,-1 0,-4 0,-6zm48 -118c0,21 4,37 13,47 8,10 18,15 31,15 13,0 24,-5 33,-16 9,-10 13,-25 13,-45 0,-21 -4,-37 -13,-47 -8,-10 -19,-15 -33,-15 -12,0 -23,5 -31,15 -9,10 -13,25 -13,46z"/>
   <g>
    <path class="fil1" d="M594 1204l-156 -318c-12,-25 -17,-51 -17,-76 0,-65 35,-127 97,-157 24,-12 50,-17 76,-17 0,0 0,0 0,0 64,-1 126,35 156,97l-6 3 6 -3c12,24 18,50 18,76 0,27 -6,53 -18,76l0 1 -156 318 0 0zm0 -555c-23,0 -47,5 -70,16 -57,28 -90,85 -90,145 0,23 5,47 16,70l144 294 144 -294 0 0c11,-22 16,-47 16,-71 0,-24 -5,-48 -16,-70l0 0c-27,-57 -84,-90 -144,-90l0 0zm0 240c-46,0 -84,-38 -84,-84 0,-46 38,-84 84,-84 46,0 84,38 84,84 0,46 -38,84 -84,84l0 -14c20,0 37,-7 50,-20 13,-13 21,-31 21,-50 0,-19 -8,-37 -21,-50 -13,-13 -30,-21 -50,-21 -20,0 -37,8 -50,21 -13,13 -20,31 -20,50 0,19 7,37 20,50 13,13 30,20 50,20l0 14z"/>
    <polygon class="fil1" points="594,1107 488,882 488,882 500,877 595,1077 610,1050 622,1057 "/>
   </g>
  </g>
 </g>
</svg>
