<?xml version="1.0" encoding="UTF-8"?>
<!DOCTYPE svg PUBLIC "-//W3C//DTD SVG 1.1//EN" "http://www.w3.org/Graphics/SVG/1.1/DTD/svg11.dtd">
<!-- Creator: CorelDRAW X8 -->
<svg xmlns="http://www.w3.org/2000/svg" xml:space="preserve" width="210mm" height="297mm" version="1.1" style="shape-rendering:geometricPrecision; text-rendering:geometricPrecision; image-rendering:optimizeQuality; fill-rule:evenodd; clip-rule:evenodd"
viewBox="0 0 21000 29700"
 xmlns:xlink="http://www.w3.org/1999/xlink">
 <defs>
  <style type="text/css">
   <![CDATA[
    .fil0 {fill:#DD3438;fill-rule:nonzero}
    .fil1 {fill:#FEFEFE;fill-rule:nonzero}
   ]]>
  </style>
 </defs>
 <g id="Camada_x0020_1">
  <metadata id="CorelCorpID_0Corel-Layer"/>
  <g id="_807557120">
   <polygon class="fil0" points="8168,15466 8168,14908 7611,14908 7611,14296 8168,14296 8168,13739 8780,13739 8780,14296 9338,14296 9338,14908 8780,14908 8780,15466 "/>
   <path class="fil0" d="M8894 15604l0 -600 182 0 107 409 107 -409 182 0 0 600 -112 0 -1 -472 -118 472 -117 0 -117 -472 -1 472 -112 0zm784 -301l-104 -18c12,-43 32,-74 61,-94 29,-21 71,-31 128,-31 51,0 89,6 114,18 25,12 43,28 53,46 10,19 15,53 15,103l-1 134c0,39 2,67 5,85 4,18 11,37 21,58l-114 0c-3,-7 -7,-19 -11,-33 -2,-7 -3,-12 -4,-14 -20,19 -41,34 -63,43 -22,10 -46,15 -71,15 -45,0 -80,-12 -106,-36 -26,-25 -38,-55 -38,-92 0,-25 5,-47 17,-66 12,-19 28,-34 49,-44 22,-10 52,-19 92,-27 53,-10 91,-20 111,-28l0 -12c0,-22 -5,-38 -16,-48 -11,-9 -32,-14 -62,-14 -20,0 -36,4 -48,12 -11,8 -21,23 -28,43zm154 93c-14,5 -38,11 -70,18 -31,7 -52,13 -62,20 -15,11 -23,24 -23,40 0,17 6,30 18,42 12,12 28,18 46,18 21,0 41,-7 60,-21 13,-10 23,-23 27,-38 3,-10 4,-28 4,-56l0 -23zm605 -98l-113 20c-3,-22 -12,-39 -26,-50 -13,-12 -31,-17 -52,-17 -29,0 -52,9 -69,29 -17,20 -25,53 -25,100 0,51 8,88 26,109 17,22 40,32 69,32 22,0 40,-6 54,-19 14,-12 24,-33 29,-64l113 19c-11,52 -34,92 -67,118 -33,27 -78,40 -134,40 -63,0 -114,-20 -152,-60 -38,-40 -56,-96 -56,-167 0,-72 19,-128 56,-168 38,-40 90,-60 154,-60 53,0 95,11 126,34 31,23 54,58 67,104zm84 306l0 -600 114 0 0 318 135 -153 141 0 -148 159 159 276 -124 0 -109 -196 -54 57 0 139 -114 0z"/>
   <path class="fil0" d="M8888 13634l212 0c48,0 84,3 109,11 34,10 63,27 87,53 24,25 42,56 55,93 12,37 19,83 19,136 0,48 -6,89 -18,123 -14,42 -35,76 -62,102 -20,20 -47,35 -81,46 -26,8 -60,12 -103,12l-218 0 0 -576zm116 97l0 382 87 0c32,0 56,-2 70,-6 19,-5 34,-13 47,-24 12,-11 22,-30 30,-55 8,-26 12,-61 12,-106 0,-44 -4,-79 -12,-102 -8,-24 -19,-43 -33,-56 -14,-13 -32,-23 -53,-27 -17,-4 -48,-6 -96,-6l-52 0zm569 479l-110 0 0 -418 102 0 0 60c18,-28 34,-47 48,-55 14,-9 30,-13 48,-13 25,0 49,7 73,20l-35 97c-18,-12 -36,-18 -52,-18 -15,0 -28,4 -39,12 -11,9 -19,24 -25,46 -6,23 -10,69 -10,140l0 129zm484 0l0 -62c-15,22 -35,39 -60,53 -25,13 -51,19 -78,19 -29,0 -54,-6 -76,-18 -22,-12 -38,-30 -48,-52 -10,-22 -15,-53 -15,-93l0 -265 110 0 0 193c0,59 2,95 6,108 4,13 11,24 22,31 11,8 25,12 41,12 19,0 36,-5 51,-16 15,-10 25,-23 31,-38 5,-16 8,-53 8,-113l0 -177 110 0 0 418 -102 0zm205 27l127 15c2,15 7,25 14,31 11,7 27,12 50,12 29,0 50,-5 65,-14 9,-5 17,-15 22,-27 3,-10 5,-27 5,-51l0 -61c-33,45 -75,68 -125,68 -56,0 -101,-24 -134,-71 -25,-37 -38,-84 -38,-140 0,-70 17,-123 50,-160 34,-37 76,-55 126,-55 52,0 94,22 128,68l0 -60 103 0 0 375c0,49 -4,86 -12,110 -8,25 -20,44 -34,58 -15,13 -35,24 -59,32 -25,8 -56,12 -93,12 -71,0 -121,-12 -151,-36 -29,-25 -44,-56 -44,-93 0,-4 0,-8 0,-13zm99 -244c0,44 9,76 26,97 17,20 38,31 63,31 27,0 50,-11 68,-32 19,-21 28,-52 28,-93 0,-44 -9,-76 -26,-97 -18,-21 -41,-31 -68,-31 -26,0 -48,10 -65,31 -17,20 -26,52 -26,94z"/>
   <path class="fil0" d="M9584 14845l0 -372 -133 0 0 -75 356 0 0 75 -132 0 0 372 -91 0zm328 0l-86 0 0 -324 80 0 0 46c13,-22 26,-36 37,-43 11,-7 23,-10 37,-10 19,0 38,6 56,16l-26 75c-15,-9 -28,-14 -40,-14 -13,0 -23,3 -31,10 -8,7 -15,18 -20,36 -5,17 -7,53 -7,108l0 100zm225 -224l-77 -14c8,-31 24,-55 45,-70 21,-15 53,-23 95,-23 38,0 67,5 86,14 18,9 32,20 39,34 8,14 12,40 12,77l-2 100c0,28 2,49 4,63 3,14 8,28 16,43l-85 0c-2,-5 -5,-14 -8,-25 -2,-5 -3,-8 -4,-10 -14,15 -30,26 -46,33 -17,7 -35,11 -54,11 -33,0 -59,-10 -78,-28 -19,-18 -29,-41 -29,-68 0,-19 4,-35 13,-49 9,-15 21,-26 37,-33 16,-8 38,-14 68,-20 40,-8 68,-15 83,-21l0 -9c0,-17 -4,-28 -12,-36 -8,-7 -24,-10 -46,-10 -16,0 -27,3 -36,9 -9,6 -15,17 -21,32zm115 69c-11,4 -28,8 -52,14 -24,5 -39,10 -47,14 -11,8 -16,18 -16,31 0,12 4,22 13,31 9,9 20,13 34,13 16,0 30,-5 44,-15 11,-8 18,-17 21,-29 2,-7 3,-21 3,-42l0 -17zm464 155l-85 0 0 -165c0,-35 -2,-58 -6,-68 -4,-10 -10,-18 -18,-24 -8,-5 -18,-8 -30,-8 -15,0 -28,4 -40,12 -12,8 -20,19 -25,32 -4,14 -6,38 -6,75l0 146 -86 0 0 -324 79 0 0 48c29,-37 64,-55 108,-55 19,0 36,4 52,10 16,7 28,16 36,26 8,11 13,23 16,36 4,14 5,33 5,58l0 201zm370 -228l-85 15c-3,-17 -9,-29 -19,-38 -10,-8 -23,-12 -39,-12 -22,0 -39,7 -52,22 -12,15 -19,39 -19,74 0,39 7,66 20,82 13,16 30,24 52,24 16,0 29,-5 40,-14 10,-10 17,-26 22,-48l84 14c-9,39 -26,68 -50,88 -25,20 -58,30 -100,30 -47,0 -85,-15 -113,-45 -29,-30 -43,-72 -43,-125 0,-54 14,-95 43,-125 28,-30 66,-45 114,-45 40,0 71,9 94,26 24,17 40,42 51,77zm62 228l0 -447 85 0 0 237 101 -114 105 0 -110 119 118 205 -92 0 -82 -146 -40 43 0 103 -85 0zm350 -368l0 -79 86 0 0 79 -86 0zm0 368l0 -324 86 0 0 324 -86 0zm469 0l-85 0 0 -165c0,-35 -2,-58 -6,-68 -4,-10 -10,-18 -18,-24 -8,-5 -18,-8 -30,-8 -15,0 -28,4 -40,12 -12,8 -20,19 -25,32 -4,14 -6,38 -6,75l0 146 -86 0 0 -324 79 0 0 48c29,-37 64,-55 108,-55 19,0 36,4 52,10 16,7 28,16 36,26 8,11 13,23 16,36 4,14 5,33 5,58l0 201zm79 21l98 12c2,12 5,19 11,24 9,6 21,9 39,9 22,0 39,-3 50,-10 8,-5 14,-12 17,-22 3,-7 4,-20 4,-39l1 -47c-26,35 -59,52 -98,52 -43,0 -78,-18 -103,-55 -20,-29 -30,-65 -30,-108 0,-55 13,-96 39,-125 26,-29 59,-43 98,-43 40,0 73,18 99,53l0 -46 80 0 0 291c0,38 -3,67 -9,86 -7,19 -16,33 -27,44 -11,11 -27,20 -46,26 -19,6 -43,9 -72,9 -55,0 -94,-10 -117,-29 -23,-19 -34,-42 -34,-72 0,-2 0,-6 0,-10zm77 -189c0,34 6,59 20,75 13,16 29,24 49,24 21,0 39,-8 53,-25 14,-16 22,-40 22,-72 0,-34 -7,-59 -21,-75 -14,-16 -31,-24 -53,-24 -20,0 -37,8 -50,24 -14,16 -20,40 -20,73z"/>
   <g>
    <path class="fil1" d="M8474 15206l-249 -510c-19,-40 -28,-81 -28,-122 0,-103 56,-202 155,-250 39,-19 81,-28 122,-28 0,0 0,0 0,0 103,0 201,57 250,156l-10 5 10 -5c18,39 28,81 28,121 0,43 -10,85 -28,122l0 1 -250 510 0 0zm0 -888c-38,0 -76,8 -112,26 -91,44 -144,135 -144,230 0,38 8,76 26,113l230 470 231 -470 0 0c16,-35 25,-74 25,-114 0,-38 -8,-76 -25,-112l0 0c-45,-91 -136,-143 -231,-143l0 0zm0 384c-74,0 -134,-61 -134,-135 0,-74 60,-134 134,-134 74,0 134,60 134,134 0,74 -60,135 -134,135l0 -22c31,0 60,-13 80,-33 21,-21 33,-49 33,-80 0,-31 -12,-59 -33,-80 -20,-20 -49,-33 -80,-33 -32,0 -60,13 -80,33 -21,21 -33,49 -33,80 0,31 12,59 33,80 20,20 48,33 80,33l0 22z"/>
    <polygon class="fil1" points="8473,15050 8303,14691 8303,14691 8323,14682 8475,15003 8499,14959 8518,14969 "/>
   </g>
  </g>
 </g>
</svg>
