<?xml version="1.0" encoding="UTF-8"?>
<!DOCTYPE svg PUBLIC "-//W3C//DTD SVG 1.1//EN" "http://www.w3.org/Graphics/SVG/1.1/DTD/svg11.dtd">
<!-- Creator: CorelDRAW X8 -->
<svg xmlns="http://www.w3.org/2000/svg" xml:space="preserve" width="16.9332mm" height="7.1966mm" version="1.1" style="shape-rendering:geometricPrecision; text-rendering:geometricPrecision; image-rendering:optimizeQuality; fill-rule:evenodd; clip-rule:evenodd"
viewBox="0 0 1693 720"
 xmlns:xlink="http://www.w3.org/1999/xlink">
 <defs>
  <style type="text/css">
   <![CDATA[
    .fil0 {fill:#DD3438;fill-rule:nonzero}
    .fil1 {fill:#FEFEFE;fill-rule:nonzero}
   ]]>
  </style>
 </defs>
 <g id="Camada_x0020_1">
  <metadata id="CorelCorpID_0Corel-Layer"/>
  <g id="_807555104">
   <polygon class="fil0" points="261,628 261,446 80,446 80,247 261,247 261,66 460,66 460,247 641,247 641,446 460,446 460,628 "/>
   <path class="fil0" d="M497 673l0 -196 59 0 35 134 35 -134 59 0 0 196 -36 0 -1 -154 -38 154 -38 0 -38 -154 0 154 -37 0zm255 -98l-34 -6c4,-14 11,-24 20,-31 9,-7 23,-10 42,-10 16,0 29,2 37,6 8,4 14,9 17,15 3,6 5,17 5,34l-1 43c0,13 1,22 2,28 1,5 4,12 7,19l-37 0c-1,-3 -2,-7 -4,-11 0,-3 -1,-4 -1,-5 -6,7 -13,11 -20,14 -8,3 -15,5 -24,5 -14,0 -26,-4 -34,-12 -8,-8 -12,-18 -12,-30 0,-8 1,-15 5,-21 4,-6 9,-11 16,-14 7,-4 17,-7 30,-9 17,-3 30,-6 36,-9l0 -4c0,-7 -2,-12 -5,-16 -4,-3 -10,-4 -20,-4 -7,0 -12,1 -16,4 -4,2 -7,7 -9,14zm50 30c-5,2 -12,3 -23,6 -10,2 -17,4 -20,6 -5,4 -7,8 -7,13 0,6 2,10 6,14 4,4 9,6 15,6 6,0 13,-3 19,-7 4,-3 7,-7 9,-12 1,-4 1,-10 1,-19l0 -7zm197 -32l-37 7c-1,-8 -4,-13 -8,-17 -5,-4 -10,-5 -17,-5 -10,0 -17,3 -23,9 -5,7 -8,17 -8,33 0,16 3,28 8,35 6,7 14,11 23,11 7,0 13,-2 17,-7 5,-4 8,-11 10,-20l37 6c-4,17 -11,30 -22,38 -11,9 -25,13 -44,13 -20,0 -37,-6 -49,-19 -12,-14 -18,-32 -18,-55 0,-23 6,-41 18,-54 12,-13 29,-20 50,-20 17,0 31,4 41,11 10,8 17,19 22,34zm27 100l0 -196 37 0 0 104 44 -50 46 0 -48 52 52 90 -41 0 -35 -64 -18 18 0 46 -37 0z"/>
   <path class="fil0" d="M495 32l69 0c16,0 28,1 36,4 11,3 20,9 28,17 8,8 14,18 18,30 4,12 6,27 6,44 0,16 -2,29 -6,40 -5,14 -11,25 -20,33 -6,7 -15,12 -26,15 -9,3 -20,4 -34,4l-71 0 0 -187zm38 32l0 124 28 0c11,0 18,-1 23,-2 6,-2 11,-4 15,-8 4,-4 7,-10 10,-18 3,-8 4,-20 4,-34 0,-15 -1,-26 -4,-34 -3,-7 -6,-13 -11,-18 -4,-4 -10,-7 -17,-9 -5,-1 -16,-1 -31,-1l-17 0zm185 155l-36 0 0 -135 33 0 0 19c6,-9 11,-15 16,-18 4,-3 10,-4 15,-4 9,0 17,2 24,6l-11 32c-6,-4 -12,-6 -17,-6 -5,0 -9,1 -13,4 -3,3 -6,8 -8,15 -2,7 -3,22 -3,45l0 42zm157 0l0 -20c-5,7 -11,13 -19,17 -8,5 -17,7 -26,7 -9,0 -17,-2 -24,-6 -8,-4 -13,-10 -16,-17 -3,-7 -5,-18 -5,-30l0 -86 36 0 0 62c0,19 1,31 2,35 1,5 4,8 7,10 4,3 8,4 13,4 7,0 12,-1 17,-5 5,-3 8,-7 10,-12 2,-5 3,-18 3,-37l0 -57 36 0 0 135 -34 0zm67 9l41 5c1,5 2,8 5,10 3,2 9,4 16,4 9,0 16,-2 21,-4 3,-2 6,-5 7,-10 1,-2 2,-8 2,-16l0 -20c-11,15 -24,22 -41,22 -18,0 -33,-7 -43,-23 -9,-12 -13,-27 -13,-45 0,-23 6,-40 17,-52 11,-12 24,-18 41,-18 16,0 30,7 41,22l0 -19 34 0 0 121c0,16 -2,28 -4,36 -3,8 -7,14 -11,19 -5,4 -12,8 -20,10 -8,3 -18,4 -30,4 -23,0 -39,-4 -49,-12 -9,-8 -14,-18 -14,-30 0,-1 0,-2 0,-4zm32 -79c0,14 3,25 8,31 6,7 13,10 21,10 9,0 16,-3 22,-10 6,-7 9,-17 9,-30 0,-14 -3,-25 -8,-32 -6,-6 -13,-10 -22,-10 -9,0 -16,4 -22,10 -5,7 -8,17 -8,31z"/>
   <path class="fil0" d="M721 426l0 -121 -43 0 0 -25 116 0 0 25 -43 0 0 121 -30 0zm107 0l-28 0 0 -106 26 0 0 15c5,-7 9,-11 12,-14 4,-2 8,-3 12,-3 7,0 13,2 19,5l-9 25c-5,-3 -9,-5 -13,-5 -4,0 -7,1 -10,3 -3,3 -5,6 -7,12 -1,6 -2,17 -2,35l0 33zm73 -73l-25 -5c3,-10 8,-17 15,-22 7,-5 17,-8 31,-8 12,0 21,2 28,5 6,3 10,6 12,11 3,4 4,13 4,25l0 32c0,10 0,16 1,21 1,4 3,9 5,14l-28 0c0,-2 -1,-5 -2,-8 -1,-2 -1,-3 -1,-3 -5,4 -10,8 -16,10 -5,2 -11,4 -17,4 -11,0 -19,-3 -25,-9 -7,-6 -10,-14 -10,-23 0,-6 2,-11 5,-16 2,-4 6,-8 11,-10 6,-3 13,-5 23,-7 13,-2 22,-4 27,-7l0 -2c0,-6 -2,-10 -4,-12 -3,-2 -8,-3 -15,-3 -5,0 -9,1 -12,3 -3,1 -5,5 -7,10zm38 22c-4,2 -10,3 -17,5 -8,1 -13,3 -15,5 -4,2 -6,5 -6,9 0,4 2,8 4,11 3,2 7,4 12,4 5,0 9,-2 14,-5 3,-3 6,-6 7,-9 0,-3 1,-7 1,-14l0 -6zm151 51l-28 0 0 -54c0,-11 -1,-19 -2,-22 -1,-3 -3,-6 -6,-8 -3,-2 -6,-2 -10,-2 -5,0 -9,1 -13,3 -4,3 -6,7 -8,11 -1,4 -2,12 -2,24l0 48 -28 0 0 -106 26 0 0 16c9,-12 21,-18 35,-18 6,0 12,1 17,3 5,3 9,6 12,9 2,3 4,7 5,12 1,4 2,10 2,18l0 66zm120 -74l-28 5c-1,-6 -3,-10 -6,-13 -3,-2 -8,-4 -13,-4 -7,0 -12,3 -16,7 -5,5 -7,13 -7,24 0,13 2,22 7,27 4,5 9,8 16,8 6,0 10,-2 13,-5 4,-3 6,-8 8,-15l27 4c-3,13 -8,22 -16,29 -8,6 -19,10 -33,10 -15,0 -27,-5 -37,-15 -9,-10 -13,-23 -13,-41 0,-17 4,-31 13,-40 10,-10 22,-15 38,-15 13,0 23,3 30,8 8,6 13,14 17,26zm20 74l0 -146 28 0 0 78 32 -38 35 0 -36 39 38 67 -30 0 -26 -48 -13 14 0 34 -28 0zm114 -120l0 -26 28 0 0 26 -28 0zm0 120l0 -106 28 0 0 106 -28 0zm152 0l-28 0 0 -54c0,-11 0,-19 -1,-22 -2,-3 -4,-6 -6,-8 -3,-2 -6,-2 -10,-2 -5,0 -9,1 -13,3 -4,3 -7,7 -8,11 -2,4 -2,12 -2,24l0 48 -28 0 0 -106 26 0 0 16c9,-12 21,-18 35,-18 6,0 11,1 17,3 5,3 9,6 11,9 3,3 5,7 6,12 1,4 1,10 1,18l0 66zm26 7l32 3c0,4 1,7 3,8 3,2 7,3 13,3 7,0 13,-1 16,-3 3,-2 5,-4 6,-7 1,-2 1,-7 1,-13l0 -15c-8,11 -19,17 -31,17 -15,0 -26,-6 -34,-18 -7,-10 -10,-21 -10,-35 0,-18 4,-32 13,-41 8,-9 19,-14 32,-14 13,0 24,6 32,17l0 -15 26 0 0 95c0,12 -1,22 -3,28 -2,6 -5,11 -9,14 -3,4 -8,7 -15,9 -6,2 -14,3 -23,3 -18,0 -31,-4 -38,-10 -8,-6 -11,-14 -11,-23 0,-1 0,-2 0,-3zm25 -62c0,11 2,19 6,25 5,5 10,7 16,7 7,0 13,-2 18,-8 4,-5 7,-13 7,-23 0,-11 -3,-19 -7,-25 -5,-5 -10,-7 -17,-7 -7,0 -12,2 -17,7 -4,5 -6,13 -6,24z"/>
   <g>
    <path class="fil1" d="M361 543l-81 -166c-7,-13 -10,-26 -10,-39 0,-34 19,-66 51,-81 13,-7 26,-10 40,-10 0,0 0,0 0,0 33,0 65,19 81,51l-3 1 3 -1c6,13 9,26 9,39 0,14 -3,28 -9,40l0 0 -81 166 0 0zm0 -289c-13,0 -25,3 -37,9 -29,14 -47,44 -47,75 0,12 3,24 9,36l75 153 75 -153 0 0c5,-11 8,-24 8,-37 0,-12 -3,-24 -8,-36l0 0c-15,-30 -44,-47 -75,-47l0 0zm0 125c-24,0 -44,-19 -44,-44 0,-24 20,-43 44,-43 24,0 43,19 43,43 0,25 -19,44 -43,44l0 -7c10,0 19,-4 26,-11 6,-6 10,-15 10,-26 0,-10 -4,-19 -10,-26 -7,-6 -16,-10 -26,-10 -11,0 -20,4 -26,10 -7,7 -11,16 -11,26 0,11 4,20 11,26 6,7 15,11 26,11l0 7z"/>
    <polygon class="fil1" points="360,492 305,376 305,376 312,373 361,477 369,463 375,466 "/>
   </g>
  </g>
 </g>
</svg>
